<svg xmlns="http://www.w3.org/2000/svg" width="19.43" height="14.8" viewBox="0 0 19.43 14.8">
  <g id="email" transform="translate(0 -61)">
    <g id="Grupo_6" data-name="Grupo 6" transform="translate(0 61)">
      <path id="Trazado_3" data-name="Trazado 3" d="M17.722,61H1.708A1.711,1.711,0,0,0,0,62.708V74.092A1.71,1.71,0,0,0,1.708,75.8H17.722a1.71,1.71,0,0,0,1.708-1.708V62.708A1.71,1.71,0,0,0,17.722,61Zm-.236,1.138L9.751,69.874l-7.8-7.735ZM1.138,73.857V62.938l5.483,5.436Zm.805.8L7.43,69.175l1.922,1.906a.569.569,0,0,0,.8,0l1.874-1.874,5.457,5.457Zm16.348-.805L12.835,68.4l5.457-5.457Z" transform="translate(0 -61)" fill="#7a7a7a"/>
    </g>
  </g>
</svg>
