<svg xmlns="http://www.w3.org/2000/svg" width="17.43" height="23.24" viewBox="0 0 17.43 23.24">
  <g id="padlock" transform="translate(-3)">
    <path id="Trazado_4" data-name="Trazado 4" d="M18.251,23.525H5.179A2.181,2.181,0,0,1,3,21.346V11.179A2.181,2.181,0,0,1,5.179,9H18.251a2.181,2.181,0,0,1,2.179,2.179V21.346A2.181,2.181,0,0,1,18.251,23.525ZM5.179,10.452a.727.727,0,0,0-.726.726V21.346a.727.727,0,0,0,.726.726H18.251a.727.727,0,0,0,.726-.726V11.179a.727.727,0,0,0-.726-.726Z" transform="translate(0 -0.285)" fill="#7a7a7a"/>
    <path id="Trazado_5" data-name="Trazado 5" d="M16.894,10.167a.727.727,0,0,1-.726-.726V5.81a4.357,4.357,0,0,0-8.715,0V9.441A.726.726,0,1,1,6,9.441V5.81a5.81,5.81,0,0,1,11.62,0V9.441A.727.727,0,0,1,16.894,10.167Z" transform="translate(-0.095)" fill="#7a7a7a"/>
  </g>
</svg>
