<svg xmlns="http://www.w3.org/2000/svg" width="19.974" height="19.975" viewBox="0 0 19.974 19.975">
  <g id="telephone" transform="translate(-0.01)">
    <path id="Trazado_10" data-name="Trazado 10" d="M19.942,15.477q-.085-.255-1.078-.752-.269-.156-.766-.426t-.9-.5q-.4-.227-.759-.44-.057-.043-.355-.248a3.987,3.987,0,0,0-.5-.305.929.929,0,0,0-.4-.1,1.177,1.177,0,0,0-.709.4,6.907,6.907,0,0,0-.78.88,8.553,8.553,0,0,1-.752.88,1.081,1.081,0,0,1-.653.4.965.965,0,0,1-.319-.071c-.128-.047-.224-.088-.291-.12s-.179-.1-.34-.2-.251-.154-.27-.163a14.908,14.908,0,0,1-3.334-2.468A14.9,14.9,0,0,1,5.259,8.923q-.014-.028-.163-.27t-.2-.341a3.074,3.074,0,0,1-.12-.291A.96.96,0,0,1,4.706,7.7a1.081,1.081,0,0,1,.4-.653A8.544,8.544,0,0,1,5.99,6.3a6.9,6.9,0,0,0,.88-.78,1.178,1.178,0,0,0,.4-.709.926.926,0,0,0-.1-.4,3.944,3.944,0,0,0-.305-.5q-.206-.3-.248-.355-.213-.354-.44-.759t-.5-.9q-.269-.5-.426-.766Q4.763.128,4.507.043A.8.8,0,0,0,4.209,0a4.674,4.674,0,0,0-1,.142,5.618,5.618,0,0,0-.972.3A3.8,3.8,0,0,0,.733,2.17,5.5,5.5,0,0,0,.01,4.809a5.479,5.479,0,0,0,.05.745,6.121,6.121,0,0,0,.177.816q.128.454.206.674t.291.787q.213.568.255.7a12.85,12.85,0,0,0,1.177,2.483,21.035,21.035,0,0,0,3.057,3.753,21.044,21.044,0,0,0,3.752,3.057A12.87,12.87,0,0,0,11.458,19q.128.042.695.255t.787.291q.22.078.674.206a6.175,6.175,0,0,0,.816.178,5.262,5.262,0,0,0,3.384-.674,3.8,3.8,0,0,0,1.73-1.5,5.587,5.587,0,0,0,.3-.972,4.664,4.664,0,0,0,.142-1A.791.791,0,0,0,19.942,15.477Z" transform="translate(0 0)" fill="#7a7a7a"/>
  </g>
</svg>
