<svg xmlns="http://www.w3.org/2000/svg" width="400.001" height="111.131" viewBox="0 0 400.001 111.131">
  <g id="Sustracción_1" data-name="Sustracción 1" transform="translate(483 214.131) rotate(180)" fill="#29c5f5">
    <path d="M 482.0003051757813 212.6100158691406 C 433.5390930175781 191.8757171630859 361.1390991210938 179.9998931884766 282.9996032714844 179.9998931884766 C 204.8618621826172 179.9998931884766 132.4629821777344 191.8748321533203 83.99986267089844 212.6085205078125 L 83.99980926513672 103.9995956420898 L 482.0003051757813 103.9995956420898 L 482.0003051757813 212.6100158691406 Z" stroke="none"/>
    <path d="M 481.0003356933594 211.0996704101563 L 481.0003356933594 104.9996109008789 L 84.99980163574219 104.9996109008789 L 84.99984741210938 211.0982055664063 C 133.5713195800781 190.6794586181641 205.4784240722656 178.9999237060547 282.9995727539063 178.9999237060547 C 360.5274963378906 178.9999237060547 432.4308166503906 190.6780090332031 481.0003356933594 211.0996704101563 M 483.0003356933594 214.1309814453125 L 482.9989013671875 214.1302947998047 C 434.6596984863281 193.0754547119141 361.7627563476563 180.9999237060547 282.9995727539063 180.9999237060547 C 204.2381591796875 180.9999237060547 131.341064453125 193.0751800537109 82.99984741210938 214.1293487548828 L 82.99980163574219 102.9996109008789 L 483.0003356933594 102.9996109008789 L 483.0003356933594 214.12939453125 L 483.0003356933594 214.1309814453125 Z" stroke="none" fill="#20e8ff"/>
  </g>
</svg>
