<svg xmlns="http://www.w3.org/2000/svg" width="60" height="33.985" viewBox="0 0 60 33.985">
  <g id="Header" transform="translate(-0.84 -1)">
    <g id="Grupo_9" data-name="Grupo 9" transform="translate(0.84 1)" style="isolation: isolate">
      <g id="Grupo_8" data-name="Grupo 8" transform="translate(0)">
        <path id="Trazado_8" data-name="Trazado 8" d="M212.5,114v31.439c-17.3,5.762-30.146-.056-30.146-.056-16.112-5.383-28.5-.494-29.854.078V114Z" transform="translate(-152.5 -114)" fill="#29c5f5"/>
      </g>
    </g>
    <g id="LOGO-FASSTY" transform="translate(16.202 12.278)">
      <path id="Trazado_257" data-name="Trazado 257" d="M202.835,481h.992a5.668,5.668,0,0,1,.713-1.489,3.825,3.825,0,0,0-1.254-.243c-1.083,0-1.768.614-1.768,1.5a1.945,1.945,0,0,0,.559,1.308l-.848.893a2.752,2.752,0,0,1-1.02-2.12,2.576,2.576,0,0,1,2.716-2.589,5.316,5.316,0,0,1,2.21.6,2.654,2.654,0,0,1,1.741-.6c.965,0,1.444.406,1.444.947,0,.5-.406.983-1.417.983a3.793,3.793,0,0,1-1.218-.226A4.851,4.851,0,0,0,205.2,481h1.146l-.3.992H204.9l-.532,1.732c-.641,2.084-1.705,2.869-2.941,2.869a2.041,2.041,0,0,1-2.21-1.913,2.386,2.386,0,0,1,.3-1.173l1.227.631a1.688,1.688,0,0,0-.18.695.686.686,0,0,0,.74.74c.758,0,1.371-.794,1.768-2.084l.451-1.5h-.983Zm3.41-1.678a2.741,2.741,0,0,0,.83.153c.406,0,.541-.144.541-.271,0-.181-.226-.253-.433-.253A1.518,1.518,0,0,0,206.245,479.324Z" transform="translate(-199.217 -478.259)" fill="#fff"/>
      <path id="Trazado_258" data-name="Trazado 258" d="M249.872,496.039l-.965,3.167c-.1.307-.117.6.162.6.406,0,.929-.7,1.426-1.705a.9.9,0,0,1,.514.252c-.622,1.362-1.462,2.373-2.49,2.373a.854.854,0,0,1-.938-.731,2.031,2.031,0,0,1-1.5.731,1.464,1.464,0,0,1-1.507-1.651c0-1.507,1.083-3.113,2.508-3.113a1.3,1.3,0,0,1,1.245.812l.226-.731Zm-2.643,1.137c-.623,0-1.254.9-1.254,1.687,0,.487.253.767.65.767.641,0,1.272-.9,1.272-1.7A.667.667,0,0,0,247.229,497.176Z" transform="translate(-237.755 -493.297)" fill="#fff"/>
      <path id="Trazado_259" data-name="Trazado 259" d="M279.436,497.467c0-.758.514-1.019.839-.965a16.686,16.686,0,0,0,.965-2.282l1.056.234c.343,1.1,1.155,1.994,1.155,3.068a2.032,2.032,0,0,1-.108.668,3.974,3.974,0,0,0,1.164-1.57.9.9,0,0,1,.514.253,3.475,3.475,0,0,1-3.374,2.4A2.035,2.035,0,0,1,279.436,497.467Zm1.967-2.075c-.189.469-.406.938-.632,1.371a.722.722,0,0,1,.181.469.736.736,0,0,1-.37.631.725.725,0,0,0,.74.541.8.8,0,0,0,.785-.9A8.385,8.385,0,0,0,281.4,495.392Z" transform="translate(-267.373 -491.819)" fill="#fff"/>
      <path id="Trazado_260" data-name="Trazado 260" d="M311.577,487.73h.55l.352-1.155,1.444-.4-.478,1.552h1.85l.361-1.155,1.435-.4-.478,1.552h1.2l-.307.992h-1.191l-.568,1.858c-.189.623-.009.911.379.911.623,0,1.308-.839,1.732-1.705a.9.9,0,0,1,.514.252c-.6,1.326-1.453,2.373-2.68,2.373a1.134,1.134,0,0,1-1.281-1.038,2.414,2.414,0,0,1-1.895,1.038c-1.3,0-1.48-1.1-1.146-2.183l.451-1.507h-.541Zm3.077,2.111.343-1.119h-1.859l-.568,1.858c-.18.623,0,.911.388.911C313.562,491.492,314.239,490.7,314.654,489.841Z" transform="translate(-294.38 -484.987)" fill="#fff"/>
      <path id="Trazado_261" data-name="Trazado 261" d="M357.386,498.808a5.28,5.28,0,0,1-2.68,2.815l-.054.181c-.559,1.831-1.6,2.282-2.373,2.282-.794,0-1.263-.442-1.263-1.064,0-1.182,1.651-1.363,2.436-1.579l.244-.794a1.6,1.6,0,0,1-1.164.532c-1.146,0-1.4-.929-1.092-1.922l.839-2.761H353.6l-.83,2.734c-.144.46-.117.857.37.857a1.239,1.239,0,0,0,.9-.586l.92-3h1.317l-1.317,4.313a5.025,5.025,0,0,0,1.913-2.255A.9.9,0,0,1,357.386,498.808Zm-4.15,3.338c-.695.171-1.516.334-1.516.821a.4.4,0,0,0,.442.4C352.595,503.364,352.992,502.922,353.235,502.146Z" transform="translate(-328.189 -493.755)" fill="#fff"/>
    </g>
  </g>
</svg>
