<svg xmlns="http://www.w3.org/2000/svg" width="167.503" height="164.784" viewBox="0 0 167.503 164.784">
  <g id="Grupo_246" data-name="Grupo 246" transform="translate(-279.4 -1011.882)">
    <g id="Capa_2" data-name="Capa 2" transform="translate(364.341 1011.882)">
      <g id="Grupo_245" data-name="Grupo 245" transform="translate(0)">
        <g id="Grupo_242" data-name="Grupo 242">
          <g id="Grupo_238" data-name="Grupo 238" transform="translate(3.974 2.871)">
            <rect id="Rectángulo_100" data-name="Rectángulo 100" width="74.698" height="156.544" rx="8.866" fill="#29c5f5"/>
          </g>
          <g id="Grupo_241" data-name="Grupo 241">
            <g id="Grupo_240" data-name="Grupo 240">
              <path id="Trazado_443" data-name="Trazado 443" d="M505.621,1025.944a11.786,11.786,0,0,0-11.93-11.636H436.744a11.786,11.786,0,0,0-11.93,11.636v137.043a11.786,11.786,0,0,0,11.93,11.636h56.946a11.786,11.786,0,0,0,11.93-11.636Zm-1.831,136.931a10.09,10.09,0,0,1-10.213,9.962H436.63a10.09,10.09,0,0,1-10.213-9.962V1025.833a10.09,10.09,0,0,1,10.213-9.962h56.946a10.09,10.09,0,0,1,10.213,9.962Z" transform="translate(-423.936 -1012.876)" fill="#55564b"/>
              <path id="Trazado_444" data-name="Trazado 444" d="M424.2,1050.165H424.1a.76.76,0,0,0-.769.75v4.566a.759.759,0,0,0,.769.75h.109" transform="translate(-423.327 -1027.572)" fill="#4c4b2f"/>
              <path id="Trazado_445" data-name="Trazado 445" d="M561.736,1094.76h0a.867.867,0,0,0,.878-.856v-16.951a.867.867,0,0,0-.878-.856h0" transform="translate(-480.052 -1038.199)" fill="#4c4b2f"/>
              <g id="Grupo_239" data-name="Grupo 239" transform="translate(0 34.269)">
                <path id="Trazado_446" data-name="Trazado 446" d="M424.2,1069.949h0a.867.867,0,0,0-.878.856v9.639a.867.867,0,0,0,.878.856h0" transform="translate(-423.327 -1069.949)" fill="#4c4b2f"/>
                <path id="Trazado_447" data-name="Trazado 447" d="M424.2,1094.635h0a.867.867,0,0,0-.878.856v9.638a.867.867,0,0,0,.878.856h0" transform="translate(-423.327 -1080.066)" fill="#4c4b2f"/>
              </g>
              <path id="Trazado_448" data-name="Trazado 448" d="M497.585,1016.675h-6.773c-1.445,0-1.98.01-2.067,1.8-.09,1.857-1.4,2.868-3.167,3.408a6.6,6.6,0,0,1-1.9.123H452.421a6.608,6.608,0,0,1-1.905-.079c-1.769-.54-3.076-1.641-3.167-3.5-.087-1.787-.621-1.752-2.067-1.752h-6.837a7.328,7.328,0,0,0-7.34,7.388v142.071a7.125,7.125,0,0,0,7.34,7.145h59.139a7.37,7.37,0,0,0,7.623-7.145V1024.063A7.572,7.572,0,0,0,497.585,1016.675Z" transform="translate(-426.515 -1013.846)" fill="none"/>
              <path id="Trazado_449" data-name="Trazado 449" d="M505.353,1022.224a10.475,10.475,0,0,0-10.6-10.342H435.631a10.475,10.475,0,0,0-10.6,10.342V1164.5a10.475,10.475,0,0,0,10.6,10.342H494.75a10.475,10.475,0,0,0,10.6-10.342Zm-30.254-6.233a1.039,1.039,0,1,1-1.039-1.013A1.026,1.026,0,0,1,475.1,1015.991Zm-14.132-.585h9.263a.592.592,0,1,1,0,1.159h-9.263a.592.592,0,1,1,0-1.159Zm41.749,148.765a7.37,7.37,0,0,1-7.623,7.145H435.955a7.125,7.125,0,0,1-7.341-7.145V1022.1a7.328,7.328,0,0,1,7.341-7.388h6.837c1.445,0,1.979.01,2.067,1.8.091,1.857,1.4,2.868,3.167,3.408a6.606,6.606,0,0,0,1.905.123h31.252a6.6,6.6,0,0,0,1.9-.078c1.769-.54,3.077-1.641,3.167-3.5.087-1.787.622-1.752,2.067-1.752h6.773a7.572,7.572,0,0,1,7.623,7.388Z" transform="translate(-424.024 -1011.882)" fill="#55564b"/>
              <ellipse id="Elipse_73" data-name="Elipse 73" cx="1.002" cy="0.977" rx="1.002" ry="0.977" transform="translate(49.035 3.094)" fill="#fff"/>
              <path id="Trazado_450" data-name="Trazado 450" d="M485.492,1019.015h9.23c.392,0,.71-.23.71-.558s-.318-.558-.71-.558h-9.23c-.392,0-.71.23-.71.558S485.1,1019.015,485.492,1019.015Z" transform="translate(-448.513 -1014.348)" fill="#fff"/>
            </g>
          </g>
        </g>
        <path id="Trazado_451" data-name="Trazado 451" d="M492.939,1035.769h-.523v-.463a1.162,1.162,0,0,0-.817-1.11h0l-.027-.008h0l-.028-.007h0l-.028-.007h0l-.028-.006-.029-.006-.028,0h0l-.029,0-.03,0-.029,0-.03,0h-.138l-.029,0-.03,0-.029,0-.029,0h0l-.029,0-.028.006-.028.006h0l-.028.007h0l-.028.007h0l-.027.008h0a1.162,1.162,0,0,0-.817,1.11v.463h-.523a.116.116,0,0,0-.116.116v2.228a.116.116,0,0,0,.116.116h3.389a.115.115,0,0,0,.116-.116v-2.228A.116.116,0,0,0,492.939,1035.769Zm-2.288-.462a.586.586,0,0,1,.555-.585h.078a.586.586,0,0,1,.555.585v.462h-1.189Z" transform="translate(-450.42 -1021.006)" fill="#fff"/>
        <text id="_08.00" data-name="08.00" transform="translate(10.117 9.11)" fill="#fff" font-size="3" font-family="MicrosoftPhagsPa, Microsoft PhagsPa"><tspan x="0" y="0">08.00</tspan></text>
        <g id="Grupo_243" data-name="Grupo 243" transform="translate(68.932 7.66)">
          <rect id="Rectángulo_101" data-name="Rectángulo 101" width="0.698" height="1.589" fill="#fff"/>
          <rect id="Rectángulo_102" data-name="Rectángulo 102" width="0.698" height="1.589" transform="translate(0.899)" fill="#fff"/>
          <rect id="Rectángulo_103" data-name="Rectángulo 103" width="0.698" height="1.589" transform="translate(1.797)" fill="#fff"/>
          <rect id="Rectángulo_104" data-name="Rectángulo 104" width="0.698" height="1.589" transform="translate(2.696)" fill="#fff"/>
          <rect id="Rectángulo_105" data-name="Rectángulo 105" width="0.349" height="0.965" transform="translate(3.594 0.312)" fill="#fff"/>
        </g>
        <g id="Grupo_244" data-name="Grupo 244" transform="translate(63.084 7.224)">
          <path id="Trazado_452" data-name="Trazado 452" d="M532.684,1027.164a.336.336,0,1,0,.336.336A.335.335,0,0,0,532.684,1027.164Z" transform="translate(-531.092 -1025.369)" fill="#fff"/>
          <path id="Trazado_453" data-name="Trazado 453" d="M533.118,1025.883a1.521,1.521,0,0,0-1.746,0,.228.228,0,0,0,.262.374,1.063,1.063,0,0,1,1.222,0,.228.228,0,0,0,.262-.374Z" transform="translate(-530.653 -1024.731)" fill="#fff"/>
          <path id="Trazado_454" data-name="Trazado 454" d="M533.316,1024.655a2.395,2.395,0,0,0-3.01,0,.229.229,0,1,0,.289.354,1.936,1.936,0,0,1,2.433,0,.228.228,0,1,0,.289-.354Z" transform="translate(-530.219 -1024.123)" fill="#fff"/>
        </g>
        <path id="Trazado_455" data-name="Trazado 455" d="M494.807,1270.829H474.121a1.112,1.112,0,0,1-1.108-1.108h0a1.111,1.111,0,0,1,1.108-1.108h20.686a1.111,1.111,0,0,1,1.108,1.108h0A1.112,1.112,0,0,1,494.807,1270.829Z" transform="translate(-443.69 -1117.099)" fill="#fff" opacity="0.81"/>
      </g>
    </g>
    <g id="Capa_1" data-name="Capa 1" transform="translate(279.4 1073.619)">
      <g id="entrega">
        <path id="Trazado_160" data-name="Trazado 160" d="M433.523,1234.988a16.557,16.557,0,1,0,16.557,16.557A16.557,16.557,0,0,0,433.523,1234.988Z" transform="translate(-335.779 -1165.056)" fill="#885951"/>
        <path id="Trazado_161" data-name="Trazado 161" d="M436.082,1241.222A12.878,12.878,0,1,0,448.96,1254.1h0A12.894,12.894,0,0,0,436.082,1241.222Z" transform="translate(-338.336 -1167.61)" fill="#7a463d"/>
        <path id="Trazado_162" data-name="Trazado 162" d="M438.637,1247.461a9.2,9.2,0,1,0,9.2,9.2A9.2,9.2,0,0,0,438.637,1247.461Z" transform="translate(-340.891 -1170.167)" fill="#e4dad8"/>
        <path id="Trazado_163" data-name="Trazado 163" d="M305.707,1234.988a16.557,16.557,0,1,0,16.557,16.557A16.557,16.557,0,0,0,305.707,1234.988Z" transform="translate(-283.396 -1165.056)" fill="#885951"/>
        <path id="Trazado_164" data-name="Trazado 164" d="M308.266,1241.222a12.878,12.878,0,1,0,12.878,12.878h0A12.894,12.894,0,0,0,308.266,1241.222Z" transform="translate(-285.953 -1167.61)" fill="#7a463d"/>
        <g id="Grupo_53" data-name="Grupo 53" transform="translate(13.115 27.612)">
          <path id="Trazado_165" data-name="Trazado 165" d="M310.821,1247.461a9.2,9.2,0,1,0,9.2,9.2A9.2,9.2,0,0,0,310.821,1247.461Z" transform="translate(-301.623 -1197.779)" fill="#e4dad8"/>
          <path id="Trazado_166" data-name="Trazado 166" d="M412.532,1163.437a1.85,1.85,0,0,0-.747-.159h-5.514a1.853,1.853,0,0,0-1.562,2.814c8.534,13.658,4.934,32.114.434,41.341H381.389a1.853,1.853,0,0,0-1.853,1.853h0v7.359a1.853,1.853,0,0,0,1.853,1.853h18.4a1.839,1.839,0,0,0,.794-.18l23.03-11.038a1.853,1.853,0,0,0,1.019-1.355C424.872,1204.487,430.187,1171.285,412.532,1163.437Z" transform="translate(-333.554 -1163.278)" fill="#e4dad8"/>
        </g>
        <path id="Trazado_167" data-name="Trazado 167" d="M422.428,1207.429h3.658c4.5-9.227,8.1-27.683-.434-41.341a1.852,1.852,0,0,1,1.559-2.819h-3.658a1.852,1.852,0,0,0-1.562,2.814C430.525,1179.746,426.927,1198.21,422.428,1207.429Z" transform="translate(-337.728 -1135.663)" fill="#d7c8c5"/>
        <path id="Trazado_168" data-name="Trazado 168" d="M349.446,1202.667a16.512,16.512,0,0,0-10.059-12.624c-4.625-2.1-26.833-4.447-42.247,5.657a38.209,38.209,0,0,0-17.383,34.822c0,.418.018.836,0,1.255a2.736,2.736,0,0,0,.079,1.022,1.853,1.853,0,0,0,1.737,1.236h57.044a1.853,1.853,0,0,0,1.294-.529,50.339,50.339,0,0,0,6.122-11C348.268,1217.236,350.679,1209.523,349.446,1202.667Z" transform="translate(-279.507 -1145.883)" fill="#f56c6c"/>
        <path id="Trazado_169" data-name="Trazado 169" d="M285.239,1232.792a2.736,2.736,0,0,1-.08-1.022v-1.255a38.21,38.21,0,0,1,17.367-34.832,51.7,51.7,0,0,1,25.9-7.438c-9.021-.368-21.526,1.032-31.3,7.438a38.21,38.21,0,0,0-17.372,34.832c0,.418.018.836,0,1.255a2.736,2.736,0,0,0,.079,1.022,1.853,1.853,0,0,0,1.737,1.236h5.405A1.853,1.853,0,0,1,285.239,1232.792Z" transform="translate(-279.506 -1145.877)" fill="#db4d4d"/>
        <path id="Trazado_170" data-name="Trazado 170" d="M430.963,1228.753a20.26,20.26,0,0,0-20.25,20.232,1.853,1.853,0,0,0,1.853,1.853h3.679a1.853,1.853,0,0,0,1.615-.955,13.809,13.809,0,0,1,13.106-8.243,15.513,15.513,0,0,1,13.193,8.29,1.853,1.853,0,0,0,1.572.884h3.63a1.852,1.852,0,0,0,1.853-1.853h0A20.261,20.261,0,0,0,430.963,1228.753Z" transform="translate(-333.217 -1162.5)" fill="#f56c6c"/>
        <path id="Trazado_171" data-name="Trazado 171" d="M414.4,1248.979a20.266,20.266,0,0,1,18.4-20.155c-.606-.056-1.22-.084-1.853-.084a20.261,20.261,0,0,0-20.237,20.239,1.853,1.853,0,0,0,1.853,1.853h3.679A1.853,1.853,0,0,1,414.4,1248.979Z" transform="translate(-333.217 -1162.495)" fill="#db4d4d"/>
        <path id="Trazado_172" data-name="Trazado 172" d="M363.357,1172.621H337.6a11.051,11.051,0,0,0-11.038,11.038v1.853a1.853,1.853,0,0,0,1.853,1.853h34.943a1.853,1.853,0,0,0,1.853-1.853v-11.038A1.853,1.853,0,0,0,363.357,1172.621Z" transform="translate(-298.728 -1139.495)" fill="#885951"/>
        <g id="Grupo_54" data-name="Grupo 54" transform="translate(27.833 5.588)">
          <path id="Trazado_173" data-name="Trazado 173" d="M332.08,1185.5v-1.853a11.052,11.052,0,0,1,11.038-11.038H337.6a11.052,11.052,0,0,0-11.038,11.038v1.853a1.853,1.853,0,0,0,1.853,1.853h5.519A1.853,1.853,0,0,1,332.08,1185.5Z" transform="translate(-326.561 -1145.078)" fill="#7a463d"/>
          <path id="Trazado_174" data-name="Trazado 174" d="M425.013,1144.3a1.852,1.852,0,0,1-1.853-1.852h0v-9.794l-8.042-3.216a1.853,1.853,0,0,1,1.366-3.418l9.2,3.68a1.853,1.853,0,0,1,1.157,1.707v11.038A1.852,1.852,0,0,1,425.013,1144.3Z" transform="translate(-362.458 -1125.96)" fill="#7a463d"/>
        </g>
        <path id="Trazado_175" data-name="Trazado 175" d="M402.5,1116.492a7.359,7.359,0,1,0,7.359,7.359h0A7.368,7.368,0,0,0,402.5,1116.492Z" transform="translate(-326.836 -1116.492)" fill="#f56c6c"/>
        <path id="Trazado_176" data-name="Trazado 176" d="M406.177,1129.475a7.353,7.353,0,0,1-4.992-12.758,7.359,7.359,0,1,0,6.308,12.64A7.355,7.355,0,0,1,406.177,1129.475Z" transform="translate(-326.831 -1116.584)" fill="#db4d4d"/>
        <path id="Trazado_177" data-name="Trazado 177" d="M414.965,1154.479H400.25a1.853,1.853,0,0,1,0-3.679h14.718a1.853,1.853,0,1,1,0,3.679Z" transform="translate(-328.26 -1130.547)" fill="#7a463d"/>
        <path id="Trazado_178" data-name="Trazado 178" d="M431.115,1150.8H420.069v9.2a1.853,1.853,0,0,0,1.853,1.853h9.2Z" transform="translate(-337.051 -1130.551)" fill="#956b64"/>
        <path id="Trazado_179" data-name="Trazado 179" d="M449.524,1148.511a1.852,1.852,0,0,0-1.9-.794l-8.844,1.818v11.038l8.838,1.805a1.853,1.853,0,0,0,2.167-1.473,1.822,1.822,0,0,0,.032-.38v-10.945A1.9,1.9,0,0,0,449.524,1148.511Z" transform="translate(-344.72 -1129.275)" fill="#f56c6c"/>
        <path id="Trazado_180" data-name="Trazado 180" d="M308.1,1160.147H287.863A1.853,1.853,0,0,0,286.01,1162v18.4a1.853,1.853,0,0,0,1.853,1.853H308.1a1.853,1.853,0,0,0,1.853-1.853V1162A1.853,1.853,0,0,0,308.1,1160.147Z" transform="translate(-282.109 -1134.383)" fill="#20e8ff"/>
        <path id="Trazado_181" data-name="Trazado 181" d="M309.942,1162a1.853,1.853,0,0,0-1.853-1.853H287.863A1.853,1.853,0,0,0,286.01,1162v3.68h23.919Z" transform="translate(-282.109 -1134.385)" fill="#18b7ca"/>
        <path id="Trazado_182" data-name="Trazado 182" d="M308.891,1147.678H284.538a1.588,1.588,0,0,0-1.623,1.533v6.144a1.588,1.588,0,0,0,1.623,1.533h24.353a1.587,1.587,0,0,0,1.622-1.533v-6.133A1.589,1.589,0,0,0,308.891,1147.678Z" transform="translate(-280.841 -1129.273)" fill="#20e8ff"/>
        <g id="Grupo_55" data-name="Grupo 55" transform="translate(16.56 55.193)">
          <path id="Trazado_183" data-name="Trazado 183" d="M363.5,1213.706H346.933a1.853,1.853,0,0,1-.442-3.68,1.912,1.912,0,0,1,.442,0H363.49a1.853,1.853,0,1,1,0,3.68Z" transform="translate(-322.787 -1210.013)" fill="#db4d4d"/>
          <path id="Trazado_184" data-name="Trazado 184" d="M352.149,1232.41H328.22a1.853,1.853,0,1,1,0-3.679h23.919a1.853,1.853,0,1,1,0,3.679Z" transform="translate(-315.118 -1217.679)" fill="#db4d4d"/>
          <path id="Trazado_185" data-name="Trazado 185" d="M338.972,1251.118H309.535a1.853,1.853,0,1,1,0-3.679h29.438a1.853,1.853,0,1,1,.442,3.679A1.834,1.834,0,0,1,338.972,1251.118Z" transform="translate(-307.46 -1225.346)" fill="#db4d4d"/>
        </g>
        <path id="Trazado_186" data-name="Trazado 186" d="M309.073,1195h-27.6a1.853,1.853,0,1,1-.442-3.68,1.834,1.834,0,0,1,.442,0h27.6a1.853,1.853,0,1,1,.442,3.68A1.912,1.912,0,0,1,309.073,1195Z" transform="translate(-279.4 -1147.155)" fill="#7a463d"/>
        <text id="F" transform="translate(10.919 40.872)" fill="#fff" font-size="10" font-family="SantEliaScript-BoldDMO, SantElia Script DMO" font-weight="700"><tspan x="0" y="0">F</tspan></text>
      </g>
    </g>
  </g>
</svg>
